<?xml version="1.0" encoding="UTF-8"?>
<svg xmlns="http://www.w3.org/2000/svg" viewBox="0 0 50 50">
    <path style="text-indent:0;text-align:start;line-height:normal;text-transform:none;block-progression:tb;-inkscape-font-specification:Sans" d="M 7 2 C 4.2504839 2 2 4.2504839 2 7 L 2 43 C 2 45.749516 4.2504839 48 7 48 L 43 48 C 45.749516 48 48 45.749516 48 43 L 48 7 C 48 4.2504839 45.749516 2 43 2 L 7 2 z M 7 4 L 43 4 C 44.668484 4 46 5.3315161 46 7 L 46 43 C 46 44.668484 44.668484 46 43 46 L 7 46 C 5.3315161 46 4 44.668484 4 43 L 4 7 C 4 5.3315161 5.3315161 4 7 4 z M 20 10 C 18.906937 10 18 10.906937 18 12 L 18 28 C 18 29.093063 18.906937 30 20 30 L 38 30 C 39.093063 30 40 29.093063 40 28 L 40 12 C 40 10.906937 39.093063 10 38 10 L 20 10 z M 20 12 L 38 12 L 38 14 L 20 14 L 20 12 z M 20 16 L 38 16 L 38 28 L 20 28 L 20 16 z M 12 20 C 10.906937 20 10 20.906937 10 22 L 10 38 C 10 39.093063 10.906937 40 12 40 L 32 40 C 33.093063 40 34 39.093063 34 38 L 34 31 L 32 31 L 32 38 L 12 38 L 12 26 L 17 26 L 17 24 L 12 24 L 12 22 L 17 22 L 17 20 L 12 20 z" overflow="visible" font-family="Sans"/>
</svg>